<svg xmlns="http://www.w3.org/2000/svg" width="16" height="16" viewBox="0 0 16 16">
  <path d="M8,2.831C10.175,2.831 11.937,4.56 11.937,6.693H14.748C14.748,3.038 11.727,0.074 8,0.074C4.273,0.074 1.252,3.038 1.252,6.693H4.063C4.063,4.56 5.826,2.831 8,2.831Z" fill="#79E5DE"/>
  <path d="M11.95,6.68H14.735C14.727,3.044 11.709,0.087 8,0.087C4.291,0.087 1.272,3.044 1.265,6.68H4.049C4.057,4.549 5.826,2.818 8,2.818C10.174,2.818 11.943,4.549 11.95,6.68ZM14.761,6.706H11.924V6.693C11.924,4.571 10.163,2.844 8,2.844C5.836,2.844 4.076,4.571 4.076,6.693V6.706H1.238V6.693C1.238,4.922 1.942,3.256 3.219,2.003C4.496,0.751 6.194,0.061 8,0.061C9.806,0.061 11.504,0.751 12.781,2.003C14.058,3.256 14.761,4.922 14.761,6.693V6.706Z" fill="#ffffff"/>
  <path d="M11.937,6.693C11.937,8.826 10.175,10.555 8,10.555C5.826,10.555 4.063,8.826 4.063,6.693H1.252C1.252,10.779 5.481,14.2 8,15.91C10.519,14.196 14.748,10.747 14.748,6.693H11.937Z" fill="#FF6D48"/>
</svg>
